<?xml version="1.0" encoding="UTF-8"?>
<svg xmlns="http://www.w3.org/2000/svg" viewBox="0 0 275.520000 219.840000">
<g transform="translate(0.000000,219.840000) scale(0.012000,-0.012000)" fill="#ffffff" stroke="none">
<path d="M1545 4484 c-106 -15 -159 -31 -246 -75 -109 -55 -201 -132 -270
-224 -24 -33 -47 -66 -51 -75 -74 -161 -104 -303 -95 -445 9 -130 30 -218 77
-315 85 -178 166 -257 370 -360 79 -40 160 -54 310 -55 172 0 233 13 362 80
90 46 203 126 212 151 8 21 -10 60 -36 78 -35 25 -71 20 -104 -15 -50 -54
-144 -108 -243 -140 -90 -29 -103 -31 -206 -26 -83 4 -126 11 -177 29 -65 24
-159 80 -207 122 -58 52 -128 155 -163 242 -69 170 -72 339 -8 483 15 36 31
78 35 93 7 26 105 149 156 194 13 12 62 42 109 66 111 59 203 74 349 60 85 -9
116 -17 184 -49 45 -21 106 -59 135 -85 60 -55 96 -62 130 -25 24 25 41 67 35
84 -13 35 -262 175 -343 193 -58 12 -263 21 -315 14z"/>
<path d="M16535 4474 c-79 -16 -216 -83 -297 -144 -56 -42 -117 -112 -172
-195 -18 -27 -52 -106 -76 -175 -43 -125 -43 -125 -41 -263 1 -113 5 -149 22
-195 11 -31 29 -82 38 -112 39 -122 175 -287 291 -352 98 -55 124 -65 212 -87
115 -28 264 -28 401 0 79 16 126 33 216 79 71 36 131 75 156 100 39 40 39 40
38 311 -1 233 -3 274 -17 287 -13 14 -54 16 -288 16 -247 1 -275 -1 -290 -16
-22 -22 -23 -56 -2 -86 15 -21 20 -22 209 -22 106 0 201 -3 210 -6 8 -4 22
-19 30 -35 20 -38 21 -286 1 -332 -29 -67 -114 -123 -247 -161 -30 -9 -94 -20
-144 -25 -126 -13 -236 5 -340 54 -61 29 -96 55 -150 109 -102 104 -139 170
-170 299 -33 142 -33 241 1 372 19 75 37 117 71 170 25 39 67 92 92 118 59 61
150 121 226 148 137 48 361 31 493 -38 37 -19 84 -48 105 -65 25 -19 44 -27
57 -23 20 6 80 69 80 84 0 23 -75 77 -168 123 -89 43 -118 53 -205 64 -129 17
-252 16 -342 -2z"/>
<path d="M6074 4466 c-19 -9 -35 -26 -44 -47 -22 -59 -100 -232 -126 -282 -13
-26 -36 -78 -49 -114 -14 -37 -29 -71 -34 -77 -5 -6 -26 -51 -46 -101 -21 -49
-66 -148 -101 -220 -35 -71 -64 -135 -64 -141 0 -6 -36 -89 -81 -185 -105
-227 -106 -229 -130 -267 -20 -30 -20 -34 -5 -57 13 -19 25 -25 55 -25 26 0
46 7 64 24 26 24 58 80 72 126 4 14 30 71 57 127 29 62 59 109 73 119 22 14
74 17 413 18 218 1 397 -2 409 -7 12 -6 29 -28 38 -50 9 -23 25 -53 36 -69 11
-15 28 -51 38 -80 24 -71 68 -158 94 -185 15 -17 32 -23 62 -23 22 0 46 5 53
12 21 21 13 72 -16 114 -16 21 -41 73 -57 114 -15 41 -34 84 -42 96 -7 11 -21
45 -31 75 -11 29 -31 71 -46 93 -14 21 -31 57 -37 80 -6 22 -21 59 -34 82 -13
22 -36 72 -50 110 -14 38 -33 79 -41 92 -8 13 -31 59 -50 102 -18 44 -50 117
-70 163 -19 45 -60 132 -89 192 -30 61 -61 127 -69 148 -22 55 -84 72 -152 43z
m129 -312 c22 -49 60 -134 84 -189 25 -55 60 -131 79 -170 18 -38 40 -89 49
-113 8 -24 24 -56 35 -73 29 -39 24 -89 -10 -106 -36 -18 -584 -18 -620 0 -43
22 -38 58 30 202 121 252 156 331 205 459 12 33 32 68 44 77 38 31 60 12 104
-87z"/>
<path d="M8420 4469 c-13 -6 -28 -15 -32 -22 -5 -7 -8 -262 -7 -567 0 -305 -2
-563 -6 -572 -4 -10 -16 -18 -27 -18 -32 0 -97 58 -123 109 -13 26 -31 54 -41
61 -9 8 -47 55 -85 105 -37 49 -86 113 -108 140 -65 81 -102 127 -166 210 -94
122 -105 136 -190 240 -44 53 -93 116 -110 140 -28 39 -74 96 -124 153 -16 17
-31 22 -69 22 -67 0 -84 -19 -81 -96 1 -33 2 -354 0 -715 -1 -361 1 -664 5
-673 7 -19 43 -36 74 -36 10 0 28 8 40 18 23 19 23 19 22 583 0 310 2 572 4
582 13 43 105 -6 141 -77 9 -17 45 -64 79 -104 35 -40 72 -85 81 -100 9 -15
43 -56 74 -92 31 -36 64 -78 74 -95 11 -16 35 -49 55 -72 53 -62 144 -181 190
-247 8 -12 32 -41 53 -66 38 -43 59 -68 131 -155 18 -22 46 -60 63 -85 41 -61
64 -80 104 -86 25 -4 41 -1 57 13 23 18 23 18 23 747 0 578 -3 732 -13 742
-19 17 -60 23 -88 13z"/>
<path d="M12353 4473 c-12 -2 -27 -10 -33 -18 -8 -10 -11 -168 -11 -581 0
-395 -3 -572 -11 -581 -6 -7 -19 -13 -29 -13 -24 0 -86 55 -118 105 -27 42
-172 234 -242 320 -22 28 -59 74 -81 104 -23 30 -64 82 -92 115 -28 34 -60 75
-70 91 -11 17 -45 59 -76 95 -31 36 -80 97 -109 135 -70 95 -142 184 -165 206
-14 13 -35 19 -66 19 -25 0 -54 -6 -64 -13 -17 -13 -18 -53 -18 -742 1 -593 3
-730 14 -741 7 -8 27 -16 44 -20 21 -4 36 0 53 13 23 19 23 19 26 597 2 383 6
581 13 588 6 6 21 8 35 4 36 -9 75 -43 97 -86 11 -21 50 -75 87 -121 38 -46
77 -96 88 -110 28 -36 97 -125 142 -181 21 -25 77 -97 125 -160 49 -62 100
-129 115 -148 16 -19 56 -71 91 -115 66 -85 148 -185 197 -241 38 -44 89 -55
124 -27 23 19 23 19 23 748 -1 577 -4 731 -14 741 -17 15 -47 22 -75 17z"/>
<path d="M17618 4469 c-39 -15 -36 -47 10 -100 21 -24 64 -82 95 -129 84 -127
114 -170 150 -219 17 -24 48 -68 67 -97 42 -62 95 -139 149 -214 107 -147 96
-96 99 -429 2 -287 3 -297 23 -313 27 -23 81 -23 109 0 21 17 22 22 24 297 2
280 2 280 28 331 15 27 34 57 44 65 17 14 80 105 189 274 17 25 40 58 51 73
12 15 69 98 128 186 59 87 120 171 136 186 59 55 26 111 -56 95 -58 -10 -83
-40 -269 -315 -66 -98 -123 -180 -196 -285 -22 -33 -50 -77 -60 -97 -20 -39
-52 -55 -86 -44 -11 3 -39 37 -63 74 -24 37 -61 90 -82 118 -21 28 -38 56 -38
62 0 6 -13 26 -28 44 -16 18 -64 87 -108 152 -145 218 -161 241 -187 264 -29
27 -89 37 -129 21z"/>
<path d="M2617 4457 c-17 -11 -18 -62 -18 -741 1 -442 4 -733 10 -739 21 -21
117 -26 526 -27 374 0 433 2 453 16 28 20 30 74 3 98 -18 16 -54 18 -410 19
-390 2 -390 2 -413 25 -23 23 -23 23 -25 660 -2 350 -3 645 -3 654 0 9 -7 24
-16 32 -19 19 -83 21 -107 3z"/>
<path d="M3977 4457 c-16 -11 -17 -64 -18 -740 0 -400 3 -731 6 -737 16 -25
100 -30 563 -30 483 0 483 0 507 25 14 13 25 33 25 45 0 11 -9 29 -20 40 -19
19 -33 20 -449 20 -407 0 -430 1 -452 19 -24 19 -24 21 -27 254 -3 235 -3 235
22 263 24 29 24 29 393 31 202 2 373 3 380 3 22 0 43 32 43 65 0 67 10 65
-411 65 -380 0 -380 0 -404 25 -25 24 -25 24 -25 250 0 131 4 234 10 245 20
38 63 42 491 39 392 -2 412 -2 425 16 20 27 17 79 -4 98 -17 15 -68 17 -528
17 -393 0 -514 -3 -527 -13z"/>
<path d="M9707 4458 c-15 -12 -17 -72 -17 -743 -1 -730 -1 -730 20 -747 20
-16 65 -17 532 -18 464 0 513 1 530 16 23 22 24 76 0 97 -17 15 -63 17 -451
17 -430 0 -462 2 -483 34 -12 17 -10 474 2 496 5 10 24 23 41 29 21 7 156 11
395 11 351 0 365 1 384 20 28 28 25 64 -6 89 -24 19 -40 20 -399 21 -206 0
-380 3 -388 6 -31 12 -37 54 -37 278 0 205 2 226 19 247 19 24 19 24 462 26
486 2 472 1 472 62 0 17 -8 40 -18 51 -18 20 -30 20 -530 20 -393 0 -515 -3
-528 -12z"/>
<path d="M12967 4452 c-16 -17 -17 -83 -17 -738 0 -606 2 -723 14 -740 14 -18
33 -19 523 -22 398 -2 513 1 533 11 19 9 26 22 28 49 2 28 -2 40 -20 52 -20
14 -75 16 -455 16 -413 0 -434 1 -452 19 -26 26 -32 91 -29 314 4 263 -39 239
429 236 344 -2 370 -1 389 16 25 23 26 76 2 98 -17 15 -59 17 -400 17 -382 0
-382 0 -399 27 -15 22 -18 57 -21 224 -3 109 -1 215 2 234 4 20 16 45 27 56
20 20 32 20 427 19 224 -1 417 -1 430 -1 29 1 62 35 62 65 0 15 -11 33 -26 45
-26 21 -36 21 -529 21 -474 0 -503 -1 -518 -18z"/>
<path d="M14431 4456 c-8 -9 -11 -217 -11 -742 -1 -729 -1 -729 21 -746 28
-24 84 -23 108 1 17 17 19 38 19 270 1 159 5 258 12 271 6 11 23 23 38 27 15
5 112 8 216 8 188 0 188 0 228 -45 21 -25 51 -61 66 -82 44 -59 179 -240 209
-279 16 -20 51 -66 78 -102 28 -36 60 -70 73 -76 32 -15 104 -14 126 2 26 19
14 50 -43 111 -50 55 -89 103 -136 171 -16 24 -60 81 -96 127 -80 103 -121
171 -114 189 8 20 35 36 86 49 63 17 161 83 215 147 55 64 73 118 81 244 5 71
2 100 -15 155 -15 48 -36 88 -69 129 -41 51 -63 67 -143 108 -52 26 -126 54
-165 62 -54 11 -150 15 -421 15 -284 0 -354 -3 -363 -14z m791 -144 c93 -33
138 -63 187 -126 46 -58 46 -59 49 -145 2 -48 -1 -106 -7 -128 -6 -23 -30 -64
-54 -93 -33 -40 -62 -61 -137 -98 -95 -47 -95 -47 -365 -44 -148 1 -278 5
-288 8 -9 3 -21 13 -26 23 -12 21 -17 559 -6 585 17 40 55 45 330 42 231 -3
266 -6 317 -24z"/>
<path d="M2940 2135 c-83 -10 -122 -20 -183 -49 -83 -38 -148 -79 -208 -130
-47 -40 -122 -133 -147 -182 -11 -22 -29 -57 -41 -79 -11 -22 -30 -76 -42
-120 -16 -60 -22 -111 -22 -205 -1 -97 4 -144 20 -210 12 -47 42 -124 66 -172
88 -171 226 -291 407 -354 52 -18 136 -38 187 -44 77 -10 108 -9 191 4 226 36
382 128 515 305 44 59 63 97 119 251 25 68 35 254 19 355 -22 140 -123 341
-215 425 -48 44 -161 130 -171 130 -4 0 -39 14 -78 32 -49 21 -104 35 -172 44
-115 16 -107 16 -245 -1z m249 -135 c76 -13 186 -67 254 -124 56 -48 137 -146
165 -202 11 -22 32 -75 47 -119 25 -75 27 -88 23 -210 -4 -119 -8 -138 -39
-220 -20 -50 -56 -119 -83 -155 -44 -61 -159 -170 -179 -170 -4 0 -43 -16 -85
-35 -100 -47 -193 -61 -302 -46 -92 12 -218 63 -283 114 -75 59 -147 141 -187
213 -45 81 -80 219 -80 320 0 34 9 106 20 160 16 76 30 115 62 167 23 38 73
101 113 141 87 88 198 153 283 165 82 12 197 12 271 1z"/>
<path d="M1250 2130 c-65 -14 -163 -67 -219 -120 -27 -25 -65 -75 -85 -111
-35 -64 -36 -70 -36 -168 0 -100 1 -105 36 -168 25 -44 57 -81 100 -117 54
-45 81 -58 191 -94 70 -24 171 -51 223 -61 89 -18 215 -65 274 -104 14 -10 40
-45 57 -78 42 -85 43 -144 1 -226 -33 -64 -55 -84 -137 -125 -74 -38 -145 -49
-249 -42 -72 5 -111 14 -188 45 -54 21 -136 64 -183 94 -47 30 -92 55 -101 55
-24 0 -64 -47 -64 -74 0 -54 132 -144 289 -197 145 -49 335 -60 469 -28 76 19
164 63 215 109 32 28 61 69 88 121 37 74 39 84 39 169 0 83 -3 96 -34 158 -62
123 -179 198 -391 249 -55 13 -158 42 -228 64 -102 32 -137 48 -169 77 -22 20
-53 59 -69 87 -21 37 -29 63 -29 100 0 40 8 63 38 114 30 52 49 71 99 101 34
20 79 40 100 44 60 9 197 7 255 -5 65 -13 206 -79 232 -108 23 -25 48 -27 86
-4 32 18 53 57 45 82 -10 30 -131 96 -269 148 -48 17 -320 27 -386 13z"/>
<path d="M6703 2129 c-12 -4 -26 -17 -32 -28 -7 -13 -11 -171 -11 -473 0 -263
-4 -480 -11 -518 -5 -36 -26 -99 -45 -141 -27 -58 -49 -88 -92 -126 -71 -62
-175 -111 -267 -125 -95 -15 -191 2 -293 52 -59 28 -91 52 -134 99 -43 47 -62
80 -83 139 -15 42 -32 111 -36 152 -5 41 -9 265 -8 498 1 373 -1 426 -15 447
-13 20 -25 25 -56 25 -31 0 -43 -5 -56 -25 -14 -22 -16 -76 -12 -532 4 -453 6
-513 22 -553 9 -25 26 -68 36 -97 25 -69 87 -150 163 -213 47 -38 85 -58 157
-82 91 -32 102 -33 245 -33 144 0 154 2 245 33 145 51 242 136 309 272 65 130
64 126 68 675 3 391 1 505 -9 524 -15 28 -54 42 -85 30z"/>
<path d="M9871 2129 c-60 -10 -215 -76 -264 -111 -46 -34 -201 -192 -214 -219
-6 -13 -29 -62 -51 -109 -36 -76 -42 -98 -53 -208 -9 -96 -9 -149 0 -240 9
-93 18 -130 41 -177 16 -33 36 -77 44 -98 8 -20 34 -60 58 -89 65 -77 135
-148 146 -148 6 0 25 -12 42 -26 42 -35 187 -89 296 -110 77 -14 103 -15 194
-4 124 14 261 57 343 109 57 35 155 127 209 194 15 19 48 76 73 128 36 75 48
115 61 199 36 236 -11 452 -133 620 -82 112 -208 207 -348 262 -75 29 -89 31
-235 34 -85 2 -179 -1 -209 -7z m302 -129 c31 -6 87 -25 124 -43 70 -32 167
-104 192 -141 8 -12 29 -37 46 -56 35 -37 89 -151 112 -235 18 -67 18 -255 -1
-325 -26 -97 -91 -221 -144 -275 -82 -84 -133 -120 -225 -159 -96 -42 -206
-61 -297 -53 -30 3 -94 21 -142 40 -146 58 -283 177 -330 287 -11 25 -31 69
-45 97 -51 105 -54 324 -7 439 14 32 34 83 45 112 15 38 43 75 103 136 60 62
101 93 156 121 41 21 98 44 125 51 63 15 213 17 288 4z"/>
<path d="M13319 2130 c-59 -10 -163 -63 -216 -110 -23 -20 -59 -61 -79 -91
-44 -65 -58 -140 -50 -254 5 -74 9 -85 49 -143 65 -92 132 -136 285 -184 70
-21 165 -46 212 -54 112 -20 251 -85 302 -142 58 -64 72 -142 43 -239 -11 -37
-28 -62 -61 -93 -25 -23 -75 -55 -110 -72 -61 -29 -73 -31 -182 -31 -112 0
-122 2 -223 40 -71 26 -133 58 -187 96 -45 31 -89 57 -99 57 -24 0 -73 -50
-73 -75 0 -59 194 -174 370 -218 66 -16 116 -21 220 -21 114 0 145 4 199 23
105 36 143 58 198 112 41 40 59 68 83 130 42 108 41 187 -1 298 -28 74 -36 85
-92 128 -34 26 -90 57 -125 70 -35 13 -75 29 -90 37 -15 7 -70 23 -122 35 -52
11 -146 38 -209 58 -92 31 -123 46 -162 81 -26 23 -57 62 -68 85 -23 47 -27
119 -10 163 19 52 97 132 156 160 45 22 74 29 142 32 48 2 118 -1 157 -7 92
-14 209 -64 254 -107 20 -19 43 -34 52 -34 18 0 88 74 88 93 0 20 -12 32 -71
69 -94 60 -187 96 -279 107 -95 12 -232 13 -301 1z"/>
<path d="M4284 2116 c-18 -14 -19 -36 -24 -718 -3 -387 -1 -718 3 -736 5 -20
17 -36 30 -41 27 -10 938 -13 953 -3 35 23 39 87 7 114 -11 9 -104 11 -389 9
-390 -3 -434 1 -454 39 -6 12 -10 256 -10 662 0 635 0 645 -20 666 -24 25 -67
29 -96 8z"/>
<path d="M7166 2115 c-28 -14 -34 -79 -10 -106 16 -18 33 -19 231 -19 235 0
265 -6 277 -56 4 -15 6 -307 5 -649 -1 -463 2 -627 10 -644 7 -12 24 -26 38
-32 32 -12 73 6 90 41 10 19 12 149 12 555 -1 831 -3 752 26 771 22 14 55 16
235 15 199 -2 210 -1 230 19 26 26 26 72 0 95 -18 17 -55 18 -572 19 -358 1
-559 -3 -572 -9z"/>
<path d="M8724 2116 c-18 -14 -19 -36 -24 -723 -4 -531 -2 -716 7 -740 8 -21
21 -35 37 -39 36 -9 73 3 86 26 8 14 11 241 10 732 -1 790 2 758 -63 758 -18
0 -42 -6 -53 -14z"/>
<path d="M11261 2106 c-22 -24 -22 -24 -22 -722 1 -385 1 -706 1 -715 0 -8 9
-25 20 -37 28 -30 74 -29 105 2 24 24 24 24 23 589 0 310 2 570 6 576 4 6 14
11 22 11 28 0 91 -50 113 -91 13 -22 46 -68 75 -101 28 -33 65 -79 81 -103 17
-23 57 -75 90 -115 79 -96 118 -145 157 -200 17 -25 57 -74 88 -110 30 -36 67
-83 82 -105 14 -22 48 -65 75 -96 27 -31 62 -77 77 -102 15 -26 31 -47 36 -47
5 0 23 -21 41 -46 33 -49 81 -84 115 -84 11 0 31 11 43 24 23 24 23 24 22 736
0 473 -4 717 -11 730 -12 23 -50 35 -84 26 -13 -3 -28 -18 -35 -33 -7 -20 -10
-192 -7 -573 2 -337 -1 -550 -7 -557 -5 -7 -22 -13 -36 -13 -30 0 -79 45 -105
97 -9 17 -44 65 -78 106 -35 41 -88 107 -118 146 -30 40 -87 114 -127 164 -40
51 -89 114 -110 140 -21 27 -59 74 -85 104 -27 31 -48 60 -48 64 0 4 -17 28
-37 53 -21 25 -69 84 -108 132 -38 48 -89 106 -111 130 -35 38 -47 44 -81 44
-29 0 -46 -7 -62 -24z"/>
</g>
</svg>
