<?xml version="1.0" encoding="UTF-8"?>
<svg xmlns="http://www.w3.org/2000/svg" viewBox="0 0 275.520000 219.840000">
<g transform="translate(0.000000,219.840000) scale(0.012000,-0.012000)" fill="#ffffff" stroke="none">
<path d="M3475 11680 c-77 -4 -167 -13 -200 -18 -123 -22 -417 -92 -447 -108
-17 -9 -65 -26 -107 -39 -83 -25 -238 -86 -286 -112 -16 -9 -61 -33 -100 -53
-117 -61 -297 -170 -329 -199 -12 -10 -32 -24 -46 -31 -44 -23 -250 -199 -356
-304 -143 -143 -305 -345 -401 -504 -21 -35 -55 -91 -75 -125 -21 -34 -49 -87
-63 -117 -14 -30 -41 -86 -60 -125 -18 -38 -37 -81 -41 -95 -3 -14 -17 -46
-30 -72 -14 -26 -31 -78 -40 -115 -8 -38 -28 -100 -44 -140 -16 -39 -34 -109
-40 -155 -6 -46 -20 -114 -30 -153 -31 -113 -42 -252 -44 -545 -1 -304 12
-477 49 -635 13 -55 27 -125 30 -155 4 -30 18 -83 32 -117 13 -34 32 -90 42
-125 28 -93 78 -224 117 -303 19 -38 41 -86 49 -105 35 -83 211 -367 277 -448
78 -98 244 -286 302 -344 63 -63 279 -242 330 -273 18 -11 46 -31 63 -45 27
-22 70 -48 165 -102 17 -9 56 -32 87 -51 31 -19 67 -38 81 -42 14 -4 52 -22
85 -40 33 -18 80 -38 105 -45 25 -7 62 -21 83 -31 71 -37 312 -111 407 -125
52 -9 122 -23 155 -34 123 -37 481 -54 845 -40 190 8 277 15 340 30 47 11 138
29 203 40 65 11 144 31 176 44 31 13 82 29 112 36 30 7 85 28 124 47 38 18 75
33 83 33 17 0 204 91 270 132 60 38 206 135 273 181 82 57 231 187 383 334
129 125 149 149 149 176 0 21 -7 35 -23 46 -21 14 -412 405 -752 754 -79 81
-152 147 -162 147 -25 0 -56 -18 -92 -54 -78 -76 -200 -175 -255 -205 -19 -11
-41 -27 -49 -36 -8 -9 -32 -26 -54 -37 -22 -11 -56 -33 -76 -48 -19 -16 -46
-31 -60 -35 -14 -4 -52 -22 -85 -40 -33 -18 -82 -38 -109 -44 -27 -7 -66 -21
-87 -32 -64 -32 -155 -48 -345 -60 -133 -8 -219 -8 -320 0 -149 12 -211 25
-308 65 -33 14 -79 30 -101 35 -22 6 -56 22 -74 36 -19 13 -50 30 -70 36 -20
7 -58 29 -86 50 -27 21 -70 53 -94 71 -98 73 -284 274 -320 345 -11 23 -26 45
-31 48 -6 4 -27 39 -45 77 -19 39 -39 76 -45 83 -6 7 -30 71 -55 143 -76 225
-112 479 -101 717 8 165 29 327 55 422 32 114 84 255 114 304 15 25 27 50 27
56 0 5 13 28 29 50 16 22 36 55 46 73 41 78 269 328 351 384 82 56 114 76 179
114 39 22 81 43 95 47 14 4 45 18 70 30 25 13 109 36 185 51 117 23 166 28
300 29 133 0 187 -5 320 -29 98 -17 177 -37 205 -51 25 -13 65 -28 90 -35 24
-7 73 -29 109 -51 36 -21 68 -39 73 -39 7 0 67 -40 206 -138 47 -34 179 -151
257 -229 47 -47 83 -55 113 -25 9 10 55 60 102 112 47 51 101 109 120 129 39
40 238 254 340 365 151 164 254 274 304 326 63 65 79 94 71 122 -4 11 -59 72
-124 135 -192 190 -354 314 -609 463 -68 39 -147 80 -176 90 -28 9 -70 27 -91
38 -22 11 -74 30 -115 42 -41 12 -100 32 -130 45 -30 13 -104 33 -165 44 -60
12 -146 31 -190 42 -44 11 -127 24 -185 29 -146 14 -686 20 -855 10z"/>
<path d="M8585 11680 c-147 -9 -228 -21 -331 -49 -39 -11 -106 -27 -149 -36
-44 -9 -95 -25 -115 -35 -19 -10 -64 -27 -100 -38 -121 -37 -375 -156 -445
-207 -16 -12 -50 -32 -75 -43 -41 -20 -79 -46 -163 -114 -16 -13 -41 -32 -57
-43 -126 -90 -324 -279 -429 -409 -88 -109 -132 -168 -160 -212 -27 -43 -66
-102 -111 -169 -15 -22 -38 -63 -50 -92 -12 -29 -28 -57 -35 -63 -7 -6 -23
-36 -36 -68 -12 -31 -33 -73 -45 -92 -13 -19 -28 -57 -35 -85 -7 -27 -24 -75
-39 -105 -15 -30 -35 -89 -45 -130 -10 -41 -28 -97 -40 -125 -28 -63 -31 -78
-49 -206 -8 -57 -22 -124 -31 -149 -24 -68 -35 -246 -35 -585 0 -347 10 -502
39 -590 10 -33 26 -109 35 -169 9 -59 28 -137 42 -172 14 -35 34 -95 45 -135
11 -39 29 -89 40 -111 11 -21 29 -67 39 -101 11 -34 42 -102 69 -152 28 -49
60 -110 73 -135 25 -49 189 -300 211 -322 7 -7 32 -39 56 -71 23 -32 77 -94
119 -139 78 -82 272 -256 353 -316 24 -18 64 -48 89 -67 25 -19 63 -44 86 -55
22 -11 51 -28 65 -38 38 -29 177 -110 202 -118 12 -4 48 -20 80 -36 32 -16 93
-42 135 -57 42 -16 100 -38 127 -49 111 -46 285 -95 399 -113 67 -11 141 -26
166 -33 70 -22 99 -25 345 -36 270 -12 713 2 798 26 29 8 112 25 185 39 138
25 362 90 447 130 28 13 64 27 80 30 17 4 62 24 100 45 39 20 81 41 94 45 13
4 51 25 84 46 33 22 66 39 73 39 6 0 35 17 62 38 28 20 64 45 79 55 27 17 79
55 200 146 78 60 398 380 407 408 4 13 4 29 -1 36 -4 8 -109 103 -233 212
-124 110 -277 246 -340 303 -63 58 -131 116 -150 131 -19 14 -66 56 -105 93
-38 38 -78 68 -88 68 -11 0 -54 -31 -96 -68 -96 -86 -212 -175 -285 -219 -15
-10 -54 -34 -86 -54 -31 -20 -68 -40 -81 -44 -13 -4 -49 -22 -79 -40 -30 -19
-84 -41 -119 -49 -35 -9 -79 -25 -96 -36 -18 -11 -74 -26 -134 -35 -56 -8
-123 -20 -149 -26 -57 -12 -367 -31 -402 -24 -14 3 -61 9 -105 14 -135 16
-305 51 -344 71 -21 10 -67 28 -104 40 -36 12 -83 35 -103 51 -20 16 -43 29
-50 29 -7 0 -32 15 -56 33 -24 18 -59 42 -78 54 -33 21 -135 118 -198 190 -55
63 -167 240 -191 303 -8 19 -26 60 -41 90 -15 30 -39 99 -54 153 -27 104 -25
126 14 147 12 7 674 10 2018 10 1890 0 2001 1 2021 18 21 16 22 26 28 282 6
318 -8 600 -36 720 -11 47 -27 141 -35 211 -9 69 -24 150 -34 180 -11 29 -29
97 -42 149 -13 52 -34 119 -47 149 -13 30 -30 81 -39 114 -8 33 -27 83 -41
111 -14 28 -34 74 -44 104 -10 29 -27 66 -38 81 -11 16 -25 41 -31 57 -24 63
-166 292 -245 394 -19 25 -49 65 -67 90 -68 94 -269 289 -414 403 -27 21 -69
54 -94 74 -25 20 -58 42 -75 49 -16 6 -41 21 -55 32 -14 10 -50 32 -80 47 -30
15 -66 35 -80 45 -14 9 -43 23 -65 30 -22 7 -60 23 -83 37 -24 14 -72 33 -105
43 -34 9 -89 29 -123 43 -34 14 -107 35 -162 47 -56 11 -112 24 -125 29 -130
50 -599 73 -1002 51z m545 -1310 c36 -10 100 -28 142 -39 124 -33 304 -132
402 -221 79 -71 139 -136 172 -187 18 -28 38 -55 44 -58 6 -4 21 -28 35 -55
13 -27 36 -65 49 -85 14 -19 28 -50 31 -68 4 -18 20 -55 35 -82 16 -28 37 -91
48 -140 11 -50 29 -123 41 -162 28 -96 27 -128 -3 -148 -21 -14 -154 -16
-1242 -15 -1311 0 -1252 -2 -1269 50 -4 12 4 53 19 98 14 42 32 109 41 147 8
39 29 97 45 130 16 33 39 80 50 105 27 60 87 165 131 231 56 84 215 246 293
299 104 72 246 137 370 171 60 16 113 32 119 36 17 10 200 20 292 16 50 -3
119 -13 155 -23z"/>
<path d="M13900 11670 c-85 -5 -189 -16 -230 -25 -41 -9 -129 -27 -195 -40
-66 -12 -147 -34 -180 -48 -33 -13 -76 -28 -95 -32 -19 -4 -64 -22 -100 -40
-36 -18 -82 -38 -103 -44 -37 -12 -110 -52 -196 -108 -24 -15 -63 -39 -86 -53
-64 -38 -105 -74 -241 -209 -122 -121 -170 -181 -227 -285 -16 -28 -37 -60
-47 -71 -11 -11 -26 -41 -35 -65 -8 -25 -26 -65 -39 -90 -13 -25 -33 -80 -45
-123 -12 -44 -28 -92 -36 -107 -8 -16 -24 -98 -35 -182 -28 -213 -27 -480 1
-666 12 -80 31 -160 44 -192 13 -30 29 -75 35 -100 6 -25 22 -61 34 -80 12
-19 28 -51 36 -70 7 -19 25 -50 39 -69 14 -18 40 -53 56 -76 17 -24 43 -60 59
-82 46 -59 195 -200 251 -238 28 -18 57 -41 65 -50 7 -9 34 -27 59 -40 25 -12
54 -32 65 -44 10 -11 40 -27 66 -36 26 -9 56 -25 65 -35 10 -11 43 -29 74 -40
31 -12 72 -31 91 -42 37 -21 138 -61 280 -109 47 -16 101 -37 120 -48 19 -10
71 -26 115 -36 44 -9 107 -28 140 -41 33 -13 96 -32 140 -43 72 -17 140 -37
335 -101 36 -12 101 -32 145 -46 116 -36 298 -111 369 -152 33 -20 79 -52 102
-72 22 -20 47 -41 55 -46 8 -5 35 -40 59 -79 42 -64 45 -74 49 -147 5 -120 -4
-156 -59 -239 -68 -103 -134 -151 -279 -202 -116 -42 -116 -42 -391 -41 -274
0 -275 0 -400 31 -69 17 -147 34 -175 38 -27 4 -81 20 -120 35 -38 15 -94 33
-123 39 -29 6 -78 24 -110 40 -31 15 -80 36 -109 45 -28 10 -63 26 -77 37 -14
11 -51 29 -82 39 -32 11 -78 33 -103 49 -25 15 -64 37 -86 48 -79 39 -160 86
-180 103 -11 10 -38 27 -61 38 -22 11 -47 28 -54 37 -23 27 -119 85 -141 85
-35 0 -58 -19 -84 -68 -14 -26 -36 -61 -48 -78 -12 -18 -30 -45 -39 -60 -10
-16 -32 -50 -50 -76 -64 -92 -78 -114 -98 -155 -11 -23 -31 -55 -43 -70 -12
-15 -43 -59 -68 -98 -25 -38 -59 -90 -75 -114 -34 -52 -91 -142 -119 -190 -11
-19 -35 -50 -52 -69 -18 -19 -33 -45 -33 -57 0 -32 51 -76 200 -174 25 -16 56
-38 70 -49 14 -11 48 -31 77 -45 28 -15 55 -31 58 -37 4 -6 32 -23 63 -38 32
-16 75 -40 97 -55 22 -15 43 -27 47 -27 4 0 81 -36 170 -79 90 -44 183 -85
208 -91 25 -7 59 -20 75 -30 17 -10 66 -29 110 -41 44 -12 93 -28 109 -36 29
-15 328 -95 446 -119 36 -7 85 -13 110 -14 25 0 99 -12 165 -27 113 -24 140
-26 450 -30 321 -5 334 -4 470 21 77 14 194 32 260 41 66 9 135 23 153 30 18
8 69 24 115 36 45 12 100 31 122 41 22 11 71 31 110 44 38 13 85 35 105 48 19
12 57 33 85 45 27 12 59 30 70 40 11 10 37 27 58 40 74 42 203 153 293 252 92
103 133 154 152 192 8 18 27 48 42 67 14 19 33 51 40 70 8 19 24 51 36 70 36
55 111 310 141 475 24 132 27 176 27 365 0 198 -2 225 -27 335 -31 138 -100
336 -133 381 -12 16 -29 46 -37 65 -17 40 -63 99 -173 223 -80 91 -119 125
-266 234 -91 67 -130 92 -218 142 -36 20 -74 41 -85 47 -69 39 -389 183 -406
183 -8 0 -42 13 -76 29 -33 16 -96 39 -138 50 -42 12 -97 32 -123 45 -26 13
-73 29 -105 36 -32 6 -79 21 -105 32 -26 12 -87 34 -137 49 -124 38 -305 104
-351 127 -22 11 -61 27 -89 35 -51 15 -181 79 -269 132 -27 17 -77 56 -111 88
-46 42 -71 76 -95 128 -30 65 -32 77 -28 148 3 57 12 92 33 136 35 74 108 145
195 189 36 18 79 40 95 49 49 25 247 38 435 27 169 -9 221 -17 300 -45 25 -9
90 -27 146 -40 56 -14 123 -35 150 -48 27 -14 71 -30 98 -36 27 -7 69 -22 95
-35 25 -13 57 -27 71 -30 25 -8 186 -82 250 -116 19 -11 67 -34 106 -53 39
-19 98 -51 130 -72 32 -21 69 -37 82 -37 44 0 61 24 194 270 26 48 59 112 73
142 14 30 32 62 40 70 8 9 31 48 50 86 20 38 51 96 69 129 19 33 48 87 65 119
17 33 42 73 55 90 13 17 33 53 45 81 12 27 29 57 37 66 27 30 13 60 -46 101
-30 22 -70 45 -87 53 -18 8 -54 30 -79 49 -26 20 -51 36 -56 36 -5 0 -75 32
-155 71 -183 89 -256 120 -413 176 -129 46 -171 59 -300 92 -41 10 -93 26
-116 34 -34 13 -309 65 -514 97 -83 13 -435 18 -610 10z"/>
</g>
</svg>
